<svg width="100" height="104" viewBox="0 0 100 104" fill="none" xmlns="http://www.w3.org/2000/svg">
<path d="M0.5455 52.024C0.5455 42.04 2.6095 33.16 6.7375 25.384C10.9615 17.512 16.9135 11.416 24.5935 7.096C32.2735 2.68 41.1055 0.471998 51.0895 0.471998C63.7615 0.471998 74.4175 3.88 83.0575 10.696C91.6975 17.416 97.2655 26.584 99.7615 38.2H69.3775C67.5535 34.36 65.0095 31.432 61.7455 29.416C58.5775 27.4 54.8815 26.392 50.6575 26.392C44.1295 26.392 38.8975 28.744 34.9615 33.448C31.1215 38.056 29.2015 44.248 29.2015 52.024C29.2015 59.896 31.1215 66.184 34.9615 70.888C38.8975 75.496 44.1295 77.8 50.6575 77.8C54.8815 77.8 58.5775 76.792 61.7455 74.776C65.0095 72.76 67.5535 69.832 69.3775 65.992H99.7615C97.2655 77.608 91.6975 86.824 83.0575 93.64C74.4175 100.36 63.7615 103.72 51.0895 103.72C41.1055 103.72 32.2735 101.56 24.5935 97.24C16.9135 92.824 10.9615 86.728 6.7375 78.952C2.6095 71.08 0.5455 62.104 0.5455 52.024Z" fill="white"/>
</svg>
